<?xml version="1.0" encoding="UTF-8"?>
<svg id="_Слой_2" data-name="Слой 2" xmlns="http://www.w3.org/2000/svg" viewBox="0 0 60.42 89.75">
  <defs>
    <style>
      .cls-1 {
        stroke-width: 0px;
      }
    </style>
  </defs>
  <g id="_Слой_1-2" data-name="Слой 1">
    <path class="cls-1" d="M58.19,85.93c-3.89,4.47-11.39,3.82-17.04,3.75-6.28-.38-12.76-2.14-17.16-6.79-7.2-7.9-6.21-17.75-6.36-28.81-.19-5.29.52-11.8-.63-16.77-1.22-4.52-6.34-4.12-10.09-4.84C3.86,31.93.47,30.11.03,26.81c-.29-2.39,1.73-4.87,4.76-5.96,2.1-.79,4.5-.89,6.64-1.46,5.52-1.14,5.83-6.56,6.75-11.12C19.13,2.61,26.65-1.34,31.09.42c4.89,2.47,2.52,10.05,3.93,14.36.64,3.06,2.94,4.51,5.78,4.85,6.26,1.25,18.94-2.28,19.62,6.93-1.21,9.19-14.81,5.04-21.13,6.71-3.68.48-4.71,3.88-4.76,7.11-.18,3.64-.07,8.81-.1,13.28-.01,9.1-.67,20.11,10.6,22.17,3.76.76,8.09.05,10.88.95,4.22,1.11,5.25,5.86,2.38,9.03l-.1.12Z"/>
  </g>
</svg>